<svg xmlns="http://www.w3.org/2000/svg" version="1.1" xmlns:xlink="http://www.w3.org/1999/xlink" xmlns:svgjs="http://svgjs.dev/svgjs" width="1500" height="367" viewBox="0 0 1500 367"><g transform="matrix(1,0,0,1,-0.9090909090909918,0.7644330670226225)"><svg viewBox="0 0 396 97" data-background-color="#000000" preserveAspectRatio="xMidYMid meet" height="367" width="1500" xmlns="http://www.w3.org/2000/svg" xmlns:xlink="http://www.w3.org/1999/xlink"><g id="tight-bounds" transform="matrix(1,0,0,1,0.2400000000000091,-0.2020436171694655)"><svg viewBox="0 0 395.52 97.40408723433895" height="97.40408723433895" width="395.52"><g><svg viewBox="0 0 555.7682719759215 136.86817669301294" height="97.40408723433895" width="395.52"><g transform="matrix(1,0,0,1,0,18.915934694909893)"><svg viewBox="0 0 395.5199999999999 99.03630730319315" height="99.03630730319315" width="395.5199999999999"><g id="textblocktransform"><svg viewBox="0 0 395.5199999999999 99.03630730319315" height="99.03630730319315" width="395.5199999999999" id="textblock"><g><svg viewBox="0 0 395.5199999999999 99.03630730319315" height="99.03630730319315" width="395.5199999999999"><g transform="matrix(1,0,0,1,0,0)"><svg width="395.5199999999999" viewBox="1 -38.9 158.14 39.6" height="99.03630730319315" data-palette-color="#ffffff"><path d="M41-38.9L41-30.7 38.5-30.7 38.5-8.2 41-8.2 41 0 22.1 0 22.1-8.2 24.5-8.2 24.5-16.45 17.5-16.45 17.5-8.2 19.9-8.2 19.9 0 1 0 1-8.2 3.5-8.2 3.5-30.7 1-30.7 1-38.9 19.9-38.9 19.9-30.7 17.5-30.7 17.5-23.1 24.5-23.1 24.5-30.7 22.1-30.7 22.1-38.9 41-38.9ZM69.85-8.2L72.05-8.2 72.05 0 58.85 0 58.85-3.4Q57.75-1.8 55.77-0.55 53.8 0.7 50.95 0.7L50.95 0.7Q47.2 0.7 45.05-1.3 42.9-3.3 42.9-6.95L42.9-6.95Q42.9-16.4 58.95-16.65L58.95-16.65Q58.8-18.35 57.65-18.98 56.5-19.6 53.75-19.6L53.75-19.6Q51.5-19.6 48.92-19.13 46.35-18.65 44.2-17.85L44.2-17.85 44.2-27.05Q46.85-27.7 49.95-28.1 53.05-28.5 56-28.5L56-28.5Q63.45-28.5 66.65-25.8 69.85-23.1 69.85-17.45L69.85-17.45 69.85-8.2ZM58.85-11.4L58.85-11.7Q56.6-11.7 55.37-11.1 54.15-10.5 54.15-9.1L54.15-9.1Q54.15-8.25 54.67-7.73 55.2-7.2 56.15-7.2L56.15-7.2Q57.45-7.2 58.15-8.3 58.85-9.4 58.85-11.4L58.85-11.4ZM95-28.5Q96-28.5 96.9-28.3 97.8-28.1 98.4-27.8L98.4-27.8 98.4-18.25Q96.34-19.1 94-19.1L94-19.1Q90.84-19.1 89.15-17.45 87.45-15.8 87.45-12.55L87.45-12.55 87.45-8.2 91.95-8.2 91.95 0 73.75 0 73.75-8.2 75.95-8.2 75.95-19.6 73.75-19.6 73.75-27.8 87.45-27.8 87.45-24.15Q88.84-26.25 90.65-27.38 92.45-28.5 95-28.5L95-28.5ZM112.14 0.7Q105.84 0.7 99.99-1.3L99.99-1.3 99.99-8.7 108.09-8.7 108.09-8.2Q108.09-5.8 111.14-5.8L111.14-5.8Q113.84-5.8 113.84-7.65L113.84-7.65Q113.84-8.65 113.07-9.15 112.29-9.65 110.34-10L110.34-10 107.84-10.45Q99.99-11.85 99.99-19.35L99.99-19.35Q99.99-23.7 103.29-26.1 106.59-28.5 112.19-28.5L112.19-28.5Q118.44-28.5 122.74-26.4L122.74-26.4 122.74-19.45 115.14-19.45 115.14-19.95Q115.14-20.95 114.47-21.48 113.79-22 112.49-22L112.49-22Q109.99-22 109.99-20.4L109.99-20.4Q109.99-19.55 110.69-19.1 111.39-18.65 113.24-18.25L113.24-18.25 116.09-17.7Q120.54-16.85 122.44-14.55 124.34-12.25 124.34-8.65L124.34-8.65Q124.34-4.1 121.17-1.7 117.99 0.7 112.14 0.7L112.14 0.7ZM156.94-8.2L159.14-8.2 159.14 0 143.34 0 143.34-8.2 145.44-8.2 145.44-16.4Q145.44-18.05 144.74-18.82 144.04-19.6 142.64-19.6L142.64-19.6Q139.64-19.6 139.64-16.4L139.64-16.4 139.64-8.2 141.74-8.2 141.74 0 125.94 0 125.94-8.2 128.14-8.2 128.14-30.7 125.94-30.7 125.94-38.9 139.64-38.9 139.64-23.9Q141.49-26.2 143.64-27.35 145.79-28.5 148.64-28.5L148.64-28.5Q152.79-28.5 154.87-25.9 156.94-23.3 156.94-18.75L156.94-18.75 156.94-8.2Z" opacity="1" transform="matrix(1,0,0,1,0,0)" fill="#ffffff" class="wordmark-text-0" data-fill-palette-color="primary" id="text-0"></path></svg></g></svg></g></svg></g></svg></g><g transform="matrix(1,0,0,1,418.9000952829085,0)"><svg viewBox="0 0 136.86817669301294 136.86817669301294" height="136.86817669301294" width="136.86817669301294"><g data-palette-color="#ff0d00"><rect width="37.410634962756866" height="136.86817669301294" fill="#ff0d00" stroke="transparent" data-fill-palette-color="accent" x="0" fill-opacity="1"></rect><rect width="37.410634962756866" height="136.86817669301294" fill="#ff0d00" stroke="transparent" data-fill-palette-color="accent" x="45.62272556433764" fill-opacity="0.75"></rect><rect width="37.410634962756866" height="136.86817669301294" fill="#ff0d00" stroke="transparent" data-fill-palette-color="accent" x="91.24545112867528" fill-opacity="0.5"></rect></g></svg></g></svg></g><defs></defs></svg><rect width="395.52" height="97.40408723433895" fill="none" stroke="none" visibility="hidden"></rect></g></svg></g></svg>